<svg width="1400" height="840" viewBox="0 0 1400 840" fill="none" xmlns="http://www.w3.org/2000/svg">
  <defs>
    <linearGradient id="bg" x1="180" y1="90" x2="1210" y2="760" gradientUnits="userSpaceOnUse">
      <stop stop-color="#101814"/>
      <stop offset="1" stop-color="#1B1610"/>
    </linearGradient>
  </defs>
  <rect width="1400" height="840" rx="36" fill="url(#bg)"/>
  <text x="88" y="96" fill="#F0EFE8" font-family="Inter, Arial, sans-serif" font-size="34" font-weight="800">System Architecture</text>

  <rect x="88" y="148" width="1224" height="600" rx="30" fill="rgba(255,255,255,0.05)" stroke="rgba(255,255,255,0.08)"/>

  <rect x="126" y="222" width="250" height="200" rx="24" fill="rgba(255,255,255,0.05)"/>
  <text x="156" y="280" fill="#F0EFE8" font-family="Inter, Arial, sans-serif" font-size="28" font-weight="700">Frontend</text>
  <text x="156" y="320" fill="#B8C4BC" font-family="Inter, Arial, sans-serif" font-size="20">React + TypeScript</text>
  <text x="156" y="352" fill="#B8C4BC" font-family="Inter, Arial, sans-serif" font-size="20">Chat UI</text>
  <text x="156" y="384" fill="#B8C4BC" font-family="Inter, Arial, sans-serif" font-size="20">Config Panels</text>

  <rect x="462" y="190" width="476" height="264" rx="28" fill="rgba(127,188,140,0.12)" stroke="rgba(127,188,140,0.22)"/>
  <text x="496" y="252" fill="#F0EFE8" font-family="Inter, Arial, sans-serif" font-size="30" font-weight="800">Backend Core</text>
  <text x="496" y="292" fill="#B8C4BC" font-family="Inter, Arial, sans-serif" font-size="20">FastAPI services, model adapters, SSE streaming</text>
  <rect x="496" y="334" width="180" height="72" rx="18" fill="rgba(0,0,0,0.14)"/>
  <rect x="700" y="334" width="200" height="72" rx="18" fill="rgba(0,0,0,0.14)"/>
  <text x="528" y="378" fill="#F0EFE8" font-family="Inter, Arial, sans-serif" font-size="20" font-weight="700">Adapters</text>
  <text x="734" y="378" fill="#F0EFE8" font-family="Inter, Arial, sans-serif" font-size="20" font-weight="700">Streaming</text>

  <rect x="1024" y="222" width="250" height="200" rx="24" fill="rgba(255,255,255,0.05)"/>
  <text x="1054" y="280" fill="#F0EFE8" font-family="Inter, Arial, sans-serif" font-size="28" font-weight="700">Providers</text>
  <text x="1054" y="320" fill="#B8C4BC" font-family="Inter, Arial, sans-serif" font-size="20">DeepSeek</text>
  <text x="1054" y="352" fill="#B8C4BC" font-family="Inter, Arial, sans-serif" font-size="20">Qwen / OpenRouter</text>
  <text x="1054" y="384" fill="#B8C4BC" font-family="Inter, Arial, sans-serif" font-size="20">Ollama / vLLM</text>

  <rect x="286" y="526" width="250" height="164" rx="24" fill="rgba(255,255,255,0.05)"/>
  <text x="316" y="580" fill="#F0EFE8" font-family="Inter, Arial, sans-serif" font-size="28" font-weight="700">Persistence</text>
  <text x="316" y="620" fill="#B8C4BC" font-family="Inter, Arial, sans-serif" font-size="20">SQLAlchemy + SQLite</text>

  <rect x="576" y="526" width="250" height="164" rx="24" fill="rgba(255,255,255,0.05)"/>
  <text x="606" y="580" fill="#F0EFE8" font-family="Inter, Arial, sans-serif" font-size="28" font-weight="700">Task Layer</text>
  <text x="606" y="620" fill="#B8C4BC" font-family="Inter, Arial, sans-serif" font-size="20">Celery + Redis</text>

  <rect x="866" y="526" width="250" height="164" rx="24" fill="rgba(255,255,255,0.05)"/>
  <text x="896" y="580" fill="#F0EFE8" font-family="Inter, Arial, sans-serif" font-size="28" font-weight="700">Ops Support</text>
  <text x="896" y="620" fill="#B8C4BC" font-family="Inter, Arial, sans-serif" font-size="20">LAN / local demo startup</text>

  <path d="M376 322H438" stroke="#7FBC8C" stroke-width="4" stroke-linecap="round"/>
  <path d="M938 322H1000" stroke="#D4A574" stroke-width="4" stroke-linecap="round"/>
  <path d="M700 454V502" stroke="#7FBC8C" stroke-width="4" stroke-linecap="round"/>
  <path d="M410 526V480H700" stroke="#D4A574" stroke-width="4" stroke-linecap="round"/>
  <path d="M700 526V480" stroke="#7FBC8C" stroke-width="4" stroke-linecap="round"/>
  <path d="M990 526V480H700" stroke="#D4A574" stroke-width="4" stroke-linecap="round"/>
</svg>
