<svg width="1200" height="800" viewBox="0 0 1200 800" fill="none" xmlns="http://www.w3.org/2000/svg">
  <defs>
    <linearGradient id="bg" x1="160" y1="120" x2="1040" y2="700" gradientUnits="userSpaceOnUse">
      <stop stop-color="#0E1714"/>
      <stop offset="1" stop-color="#1C1711"/>
    </linearGradient>
  </defs>
  <rect width="1200" height="800" rx="36" fill="url(#bg)"/>
  <rect x="86" y="86" width="1028" height="628" rx="30" fill="rgba(255,255,255,0.05)" stroke="rgba(255,255,255,0.08)"/>
  <text x="126" y="156" fill="#F0EFE8" font-family="Inter, Arial, sans-serif" font-size="34" font-weight="800">Provider Orchestration Layer</text>
  <text x="126" y="194" fill="#B8C4BC" font-family="Inter, Arial, sans-serif" font-size="22">One product surface, multiple runtimes and APIs behind the same interface.</text>

  <rect x="126" y="256" width="230" height="314" rx="26" fill="rgba(255,255,255,0.04)"/>
  <text x="154" y="304" fill="#F0EFE8" font-family="Inter, Arial, sans-serif" font-size="24" font-weight="700">Workspace Inputs</text>
  <rect x="154" y="334" width="174" height="46" rx="14" fill="rgba(127,188,140,0.15)"/>
  <rect x="154" y="394" width="174" height="46" rx="14" fill="rgba(255,255,255,0.06)"/>
  <rect x="154" y="454" width="174" height="46" rx="14" fill="rgba(255,255,255,0.06)"/>
  <text x="182" y="364" fill="#A8D5B0" font-family="Inter, Arial, sans-serif" font-size="18">Prompt</text>
  <text x="182" y="424" fill="#B8C4BC" font-family="Inter, Arial, sans-serif" font-size="18">Image</text>
  <text x="182" y="484" fill="#B8C4BC" font-family="Inter, Arial, sans-serif" font-size="18">Config</text>

  <rect x="464" y="236" width="272" height="356" rx="28" fill="rgba(127,188,140,0.12)" stroke="rgba(127,188,140,0.2)"/>
  <text x="494" y="294" fill="#F0EFE8" font-family="Inter, Arial, sans-serif" font-size="26" font-weight="800">Adapter Layer</text>
  <text x="494" y="334" fill="#B8C4BC" font-family="Inter, Arial, sans-serif" font-size="18">Normalizes provider-specific payloads, auth, and streaming behavior.</text>
  <rect x="494" y="394" width="212" height="44" rx="14" fill="rgba(0,0,0,0.14)"/>
  <rect x="494" y="452" width="212" height="44" rx="14" fill="rgba(0,0,0,0.14)"/>
  <rect x="494" y="510" width="212" height="44" rx="14" fill="rgba(0,0,0,0.14)"/>
  <text x="522" y="421" fill="#F0EFE8" font-family="Inter, Arial, sans-serif" font-size="17">request mapping</text>
  <text x="522" y="479" fill="#F0EFE8" font-family="Inter, Arial, sans-serif" font-size="17">response normalization</text>
  <text x="522" y="537" fill="#F0EFE8" font-family="Inter, Arial, sans-serif" font-size="17">streaming abstraction</text>

  <rect x="844" y="256" width="230" height="96" rx="24" fill="rgba(255,255,255,0.05)"/>
  <rect x="844" y="372" width="230" height="96" rx="24" fill="rgba(255,255,255,0.05)"/>
  <rect x="844" y="488" width="230" height="96" rx="24" fill="rgba(255,255,255,0.05)"/>
  <text x="872" y="314" fill="#F0EFE8" font-family="Inter, Arial, sans-serif" font-size="24" font-weight="700">DeepSeek / Qwen</text>
  <text x="872" y="430" fill="#F0EFE8" font-family="Inter, Arial, sans-serif" font-size="24" font-weight="700">OpenRouter / APIs</text>
  <text x="872" y="546" fill="#F0EFE8" font-family="Inter, Arial, sans-serif" font-size="24" font-weight="700">Ollama / vLLM</text>

  <path d="M356 414H440" stroke="#7FBC8C" stroke-width="4" stroke-linecap="round"/>
  <path d="M736 414H820" stroke="#D4A574" stroke-width="4" stroke-linecap="round"/>
</svg>
